<?xml version="1.0" encoding="UTF-8" standalone="no"?>
<svg
   version="1.1"
   width="190"
   height="40"
   viewBox="0 0 0.37109375 0.078125"
   preserveAspectRatio="xMidYMid"
   id="svg2"
   inkscape:version="1.3.2 (091e20e, 2023-11-25, custom)"
   sodipodi:docname="dpowcoin-core.svg"
   inkscape:export-xdpi="90"
   inkscape:export-ydpi="90"
   xml:space="preserve"
   xmlns:inkscape="http://www.inkscape.org/namespaces/inkscape"
   xmlns:sodipodi="http://sodipodi.sourceforge.net/DTD/sodipodi-0.dtd"
   xmlns="http://www.w3.org/2000/svg"
   xmlns:svg="http://www.w3.org/2000/svg"
   xmlns:rdf="http://www.w3.org/1999/02/22-rdf-syntax-ns#"
   xmlns:cc="http://creativecommons.org/ns#"
   xmlns:dc="http://purl.org/dc/elements/1.1/"><metadata
     id="metadata22"><rdf:RDF><cc:Work
         rdf:about=""><dc:format>image/svg+xml</dc:format><dc:type
           rdf:resource="http://purl.org/dc/dcmitype/StillImage" /></cc:Work></rdf:RDF></metadata><sodipodi:namedview
     pagecolor="#ffffff"
     bordercolor="#666666"
     borderopacity="1"
     objecttolerance="10"
     gridtolerance="10"
     guidetolerance="10"
     inkscape:pageopacity="0"
     inkscape:pageshadow="2"
     inkscape:window-width="3440"
     inkscape:window-height="1369"
     id="namedview20"
     showgrid="false"
     inkscape:zoom="11.313708"
     inkscape:cx="84.234099"
     inkscape:cy="6.4081555"
     inkscape:window-x="-8"
     inkscape:window-y="-8"
     inkscape:window-maximized="1"
     inkscape:current-layer="svg2"
     inkscape:showpageshadow="2"
     inkscape:pagecheckerboard="0"
     inkscape:deskcolor="#d1d1d1" /><!-- Android launcher icons: viewBox="-0.045 -0.045 1.09 1.09" --><defs
     id="defs4"><filter
       id="_drop-shadow"
       color-interpolation-filters="sRGB"><feGaussianBlur
         in="SourceAlpha"
         result="blur-out"
         stdDeviation="1"
         id="feGaussianBlur7" /><feBlend
         in="SourceGraphic"
         in2="blur-out"
         mode="normal"
         id="feBlend9" /></filter><linearGradient
       id="coin-gradient"
       x1="0"
       y1="0"
       x2="0"
       y2="1"><stop
         offset="0%"
         style="stop-color:#f9aa4b"
         id="stop12" /><stop
         offset="100%"
         style="stop-color:#f7931a"
         id="stop14" /></linearGradient></defs><g
     id="g14"><text
       style="font-size:0.0416667px;font-family:Sans;-inkscape-font-specification:Sans;fill:#808080;stroke-width:0.00195313"
       x="0.27490382"
       y="0.052308053"
       id="text5">C</text><text
       style="font-size:0.0416667px;font-family:Sans;-inkscape-font-specification:Sans;fill:#808080;stroke-width:0.00195313"
       x="0.30399726"
       y="0.052308053"
       id="text4">o</text><text
       style="font-size:0.0416667px;font-family:Sans;-inkscape-font-specification:Sans;fill:#808080;stroke-width:0.00195313"
       x="0.32928618"
       y="0.052308053"
       id="text3">r</text><text
       style="font-size:0.0416667px;font-family:Sans;-inkscape-font-specification:Sans;fill:#808080;stroke-width:0.00195313"
       x="0.34706777"
       y="0.052308053"
       id="text2">e</text></g><g
     id="g13"><text
       style="font-size:0.0416667px;font-family:Sans;-inkscape-font-specification:Sans;fill:#808080;stroke-width:0.00195313"
       x="0.058005031"
       y="0.052308053"
       id="text13">D</text><text
       style="font-size:0.0416667px;font-family:Sans;-inkscape-font-specification:Sans;fill:#808080;stroke-width:0.00195313"
       x="0.090109549"
       y="0.052308053"
       id="text12">p</text><text
       style="font-size:0.0416667px;font-family:Sans;-inkscape-font-specification:Sans;fill:#808080;stroke-width:0.00195313"
       x="0.11606986"
       y="0.052308053"
       id="text11">o</text><text
       style="font-size:0.0416667px;font-family:Sans;-inkscape-font-specification:Sans;fill:#808080;stroke-width:0.00195313"
       x="0.14135877"
       y="0.052308053"
       id="text10">w</text><text
       style="font-size:0.0416667px;font-family:Sans;-inkscape-font-specification:Sans;fill:#808080;stroke-width:0.00195313"
       x="0.17545712"
       y="0.052308053"
       id="text9">c</text><text
       style="font-size:0.0416667px;font-family:Sans;-inkscape-font-specification:Sans;fill:#808080;stroke-width:0.00195313"
       x="0.19716531"
       y="0.052308053"
       id="text8">o</text><text
       style="font-size:0.0416667px;font-family:Sans;-inkscape-font-specification:Sans;fill:#808080;stroke-width:0.00195313"
       x="0.22245422"
       y="0.052308053"
       id="text7">i</text><text
       style="font-size:0.0416667px;font-family:Sans;-inkscape-font-specification:Sans;fill:#808080;stroke-width:0.00195313"
       x="0.23388815"
       y="0.052308053"
       id="text6">n</text></g><path
     style="fill:#019993;stroke:none"
     d="m 0.02780817,0.00967142 c -0.0021888,2.874e-4 -0.004314,4.3223e-4 -0.0064659,0.0010143 -0.0057299,0.00155 -0.01094493,0.0049323 -0.01473797,0.00949 -0.00864882,0.01039221 -0.00899828,0.02589662 -7.3151e-4,0.03662109 0.00184584,0.0023946 0.00405128,0.0045181 0.00654309,0.0062356 0.0029033,0.0020011 0.0061351,0.0034737 0.0095558,0.0043288 0.0035841,8.9603e-4 0.0073257,0.001116 0.01098633,6.3469e-4 0.009297,-0.0012225 0.0175533,-0.0069599 0.02201221,-0.01520453 0.0021265,-0.003932 0.0032538,-0.0083667 0.0034486,-0.01281739 C 0.05901281,0.02640999 0.04946591,0.01382427 0.03633402,0.0105413 0.03367586,0.00987676 0.03055335,0.00931098 0.02780817,0.00967142 M 0.02180003,0.06280495 0.0148677,0.0369413 0.01190751,0.02589775 0.01058482,0.02091957 c 0.003978,-8.2109e-4 0.007923,-0.0020949 0.01184463,-0.0031558 0.0041439,-0.001121 0.0084943,-0.0019182 0.01264572,-3.3957e-4 0.0026114,9.9305e-4 0.0048497,0.0027932 0.0063484,0.0051547 0.0018847,0.0029697 0.0025947,0.0063771 0.0035022,0.0097275 0.001632,0.006026 0.0045199,0.01304803 0.001314,0.01905442 -4.4478e-4,8.3329e-4 -9.6136e-4,0.0016273 -0.001576,0.002346 -0.0030522,0.0035693 -0.0072945,0.0048796 -0.01164847,0.0060897 -0.003729,0.0010363 -0.0074899,0.0019591 -0.01121521,0.0030084 m -0.0038338,-0.03787995 6.6236e-4,0.0025749 0.0011115,0.0041199 c 0.0032481,-0.0018084 0.0062903,-0.0041554 0.0093842,-0.006218 0.0011094,-7.3961e-4 0.0022285,-0.0016807 0.0034332,-0.0022507 v -1.1444e-4 c -0.0038306,-0.001698 -0.0084318,2.5022e-4 -0.01218796,0.0012675 -7.8473e-4,2.1254e-4 -0.0015976,5.122e-4 -0.0024032,6.2077e-4 m 0.0058937,0.0078964 v 5.722e-5 l 0.01024246,8.6802e-4 0.0048637,3.9083e-4 c -8.5527e-4,-0.003014 -0.0013442,-0.0061576 -0.0032043,-0.0087547 l -0.0012588,7.1958e-4 -0.0025177,0.0015875 -0.0081253,0.0051316 m -0.0030327,0.002861 0.0024605,0.0092125 0.0033188,-0.0023048 0.0078392,-0.0054771 -0.0013161,-1.88e-4 -0.0033188,-3.367e-4 -0.0061226,-6.2938e-4 -0.002861,-2.7643e-4 M 0.0397102,0.03711294 0.032901,0.04186374 0.0272934,0.04575324 v 5.722e-5 c 0.0034649,0 0.006951,2.7484e-4 0.01041408,4.0262e-4 8.9662e-4,3.308e-5 0.0017912,1.1231e-4 0.0026894,1.1237e-4 2.1477e-4,1e-8 7.0743e-4,1.2402e-4 8.8183e-4,-2.43e-6 1.6292e-4,-1.1813e-4 1.4575e-4,-4.5052e-4 1.4791e-4,-6.27e-4 6.37e-6,-5.1842e-4 2.071e-5,-0.0010257 -2.03e-6,-0.0015449 -7.35e-5,-0.0016786 -6.7123e-4,-0.003371 -0.0011179,-0.0049782 -1.7767e-4,-6.3931e-4 -2.5058e-4,-0.0014936 -5.9649e-4,-0.0020599 m -0.01533508,0.01184464 0.0017738,0.0066376 c 0.0013546,-5.906e-5 0.0028707,-6.9977e-4 0.0041771,-0.0010629 0.003205,-8.909e-4 0.0075651,-0.0015107 0.0094986,-0.0046019 -4.9228e-4,-1.4551e-4 -0.0010892,-8.443e-5 -0.0016022,-1.1956e-4 -0.0012011,-8.225e-5 -0.0024037,-1.4662e-4 -0.0036049,-2.2888e-4 -0.0033946,-2.3247e-4 -0.0068387,-6.243e-4 -0.0102424,-6.2436e-4 z"
     id="path1" /></svg>
